<svg width="652" height="325" viewBox="0 0 652 325" fill="none" xmlns="http://www.w3.org/2000/svg">
<path d="M70.9552 32.0384H32.4656V58.4256H62.8208V87.392H32.4656V136H0.92V3.072H70.9552V32.0384ZM137.889 136L134.318 112.39H109.716L106.343 136H72.6152L100.193 3.072H144.833L172.609 136H137.889ZM113.882 84.0192H130.151L122.81 34.6176H121.025L113.882 84.0192ZM254.419 3.072V32.0384H228.826V136H197.28V32.0384H171.687V3.072H254.419ZM306.771 138.381C280.78 138.381 263.718 122.509 263.718 98.304V93.7408H295.065V98.8992C295.065 105.248 299.628 109.414 306.374 109.414C312.921 109.414 317.087 105.05 317.087 99.0976C317.087 78.6624 264.115 86.9952 264.115 40.5696C264.115 15.3728 280.78 0.691196 305.58 0.691196C330.579 0.691196 347.046 15.7696 347.046 38.1888V42.752H316.095V38.5856C316.095 33.2288 312.127 29.6576 305.779 29.6576C299.827 29.6576 295.859 33.0304 295.859 38.5856C295.859 58.624 348.633 49.1008 348.633 97.1136C348.633 123.104 331.967 138.381 306.771 138.381ZM415.61 3.072H447.354V136H415.61V83.424H394.778V136H363.232V3.072H394.778V54.4576H415.61V3.072ZM467.082 136V3.072H498.628V136H467.082ZM511.884 155.443L520.415 104.256H553.151V108.026L534.105 155.443H511.884ZM43.7744 189.072C69.9632 189.072 87.6208 205.539 87.6208 230.736V280.336C87.6208 305.533 69.9632 322 43.7744 322H0.92V189.072H43.7744ZM56.0752 279.542V231.53C56.0752 223.395 51.3136 218.038 42.584 218.038H32.4656V293.034H42.584C51.3136 293.034 56.0752 287.677 56.0752 279.542ZM173.024 152.17L148.621 179.152H125.21L138.503 148.202H173.024V152.17ZM176.199 218.038H136.122V240.854H169.651V269.027H136.122V293.034H176.199V322H104.576V189.072H176.199V218.038ZM278.819 232.323H247.274V228.157C247.274 220.816 242.314 215.658 234.576 215.658C227.235 215.658 222.077 220.618 222.077 228.157V284.304C222.077 291.843 227.037 297.002 234.576 297.002C242.115 297.002 247.274 291.843 247.274 284.304V274.186H235.767V247.6H278.819V283.51C278.819 308.31 261.162 324.381 234.576 324.381C207.991 324.381 190.531 308.112 190.531 283.51V227.562C190.531 202.96 207.991 186.691 234.576 186.691C261.162 186.691 278.819 202.762 278.819 227.562V232.323ZM349.851 322L346.28 298.39H321.679L318.306 322H284.578L312.155 189.072H356.795L384.571 322H349.851ZM325.845 270.019H342.114L334.773 220.618H332.987L325.845 270.019ZM478.769 232.323H447.224V228.157C447.224 220.816 442.264 215.658 434.526 215.658C427.185 215.658 422.027 220.618 422.027 228.157V284.304C422.027 291.843 426.987 297.002 434.526 297.002C442.065 297.002 447.224 291.843 447.224 284.304V274.186H435.717V247.6H478.769V283.51C478.769 308.31 461.112 324.381 434.526 324.381C407.941 324.381 390.481 308.112 390.481 283.51V227.562C390.481 202.96 407.941 186.691 434.526 186.691C461.112 186.691 478.769 202.762 478.769 227.562V232.323ZM567.186 218.038H527.109V240.854H560.639V269.027H527.109V293.034H567.186V322H495.564V189.072H567.186V218.038ZM620.745 277.162L617.174 224.982V189.072H648.719V224.982L645.148 277.162H620.745ZM633.046 323.984C621.737 323.984 614.396 316.643 614.396 305.533C614.396 294.422 621.737 286.883 633.046 286.883C644.354 286.883 651.894 294.422 651.894 305.533C651.894 316.643 644.354 323.984 633.046 323.984Z" fill="#FF1212"/>
</svg>
